<svg xmlns="http://w3.org" width="1200" height="850" viewBox="0 0 1200 850" shape-rendering="geometricPrecision">
  <!-- Sfondo trasparente -->
  <rect width="100%" height="100%" fill="none"/>

  <!-- CIRCOLO BIANCO CENTRALE DI ISOLAMENTO -->
  <circle cx="600" cy="415" r="235" fill="#ffffff" opacity="0.96"/>

  <!-- PAROLA PRINCIPALE VETTORIALE "DIVIDI" -->
  <g fill="#4d4d4d">
    <!-- Lettera D iniziale -->
    <path d="M260,345 h30 c28,0 48,18 48,55 v2 c0,37 -20,55 -48,55 h-30 v-8 h30 c22,0 39,-14 39,-47 v-2 c0,-33 -17,-47 -39,-47 h-30 z"/>
    
    <!-- Lettera I con cerchi e aste grafiche -->
    <path d="M353,349 h4 v80 h-4 z" fill="#07589a"/>
    <path d="M393,349 h4 v80 h-4 z" fill="#07589a"/>
    <circle cx="375" cy="401" r="22" fill="none" stroke="#07589a" stroke-width="5"/>
    <circle cx="375" cy="401" r="14" fill="#07589a"/>

    <!-- Lettera V -->
    <path d="M440,345 h9 l24,86 l24,-86 h9 l-30,107 h-6 z"/>

    <!-- Lettera I centrale -->
    <path d="M532,345 h8 v107 h-8 z"/>

    <!-- Lettera D secondaria -->
    <path d="M575,345 h30 c28,0 48,18 48,55 v2 c0,37 -20,55 -48,55 h-30 v-8 h30 c22,0 39,-14 39,-47 v-2 c0,-33 -17,-47 -39,-47 h-30 z"/>

    <!-- Lettera I finale -->
    <path d="M685,345 h8 v107 h-8 z"/>
  </g>

  <!-- ELEMENTO SPECIALE O CONCENTRICO (Piatto + Mirino) -->
  <g transform="translate(780, 405)">
    <circle cx="0" cy="0" r="62" fill="none" stroke="#74c9b5" stroke-width="15"/>
    <circle cx="0" cy="0" r="34" fill="none" stroke="#74c9b5" stroke-width="4" stroke-dasharray="2,2"/>
    <ellipse cx="0" cy="0" rx="18" ry="8" fill="none" stroke="#74c9b5" stroke-width="5"/>
  </g>

  <!-- PAYOFF INFERIORE "RISTORAZIONE COLLETTIVA" -->
  <g fill="#7f8c8d" transform="translate(110, 0)">
    <path d="M260,490 h14 c7,0 11,3 11,9 c0,5 -3,8 -8,9 l9,14 h-6 l-8,-13 h-7 v13 h-5 z M265,494 v7 h8 c4,0 6,-1 6,-4 c0,-3 -2,-3 -6,-3 z"/>
    <path d="M293,490 h5 v45 h-5 z"/>
    <path d="M307,522 h6 c4,0 7,-2 7,-5 c0,-3 -2,-4 -6,-5 l-5,-1 c-5,-1 -8,-4 -8,-9 c0,-6 5,-9 11,-9 h6 v4 h-6 c-4,0 -7,2 -7,5 c0,3 2,4 6,5 l5,1 c6,1 8,4 8,9 c0,6 -4,9 -12,9 h-7 z"/>
    <path d="M336,494 v37 h-5 v-37 h-10 v-4 h25 v4 z"/>
    <path d="M360,508 c0,-11 7,-19 16,-19 s16,8 16,19 c0,12 -7,19 -16,19 s-16,-7 -16,-19 z M387,508 c0,-9 -5,-15 -11,-15 s-11,6 -11,15 s5,15 11,15 s11,-6 11,-15 z"/>
    <path d="M402,490 h14 c7,0 11,3 11,9 c0,5 -3,8 -8,9 l9,14 h-6 l-8,-13 h-7 v13 h-5 z M407,494 v7 h8 c4,0 6,-1 6,-4 c0,-3 -2,-3 -6,-3 z"/>
    <path d="M439,490 h6 l15,41 h-6 l-4,-11 h-16 l-4,11 h-5 z M441,514 h13 l-6,-19 z"/>
    <path d="M469,490 h22 v4 l-16,33 h16 v4 h-23 v-3 l16,-34 h-15 z"/>
    <path d="M501,490 h5 v45 h-5 z"/>
    <path d="M515,508 c0,-11 7,-19 16,-19 s16,8 16,19 c0,12 -7,19 -16,19 s-16,-7 -16,-19 z M542,508 c0,-9 -5,-15 -11,-15 s-11,6 -11,15 s5,15 11,15 s11,-6 11,-15 z"/>
    <path d="M557,490 h6 l16,32 v-32 h5 v45 h-5 l-17,-33 v45 h-5 z"/>
    <path d="M594,490 h20 v4 h-15 v15 h13 v4 h-13 v18 h16 v4 h-21 z"/>
    <path d="M645,508 c0,-11 6,-19 15,-19 h5 v4 h-5 c-7,0 -11,6 -11,15 c0,9 4,15 11,15 h5 v4 h-5 c-9,0 -15,-8 -15,-19 z"/>
    <path d="M672,508 c0,-11 7,-19 16,-19 s16,8 16,19 c0,12 -7,19 -16,19 s-16,-7 -16,-19 z M699,508 c0,-9 -5,-15 -11,-15 s-11,6 -11,15 s5,15 11,15 s11,-6 11,-15 z"/>
    <path d="M714,490 h5 v37 h15 v4 h-20 z"/>
    <path d="M741,490 h5 v37 h15 v4 h-20 z"/>
    <path d="M768,490 h20 v4 h-15 v15 h13 v4 h-13 v18 h16 v4 h-21 z"/>
    <path d="M806,494 v37 h-5 v-37 h-10 v-4 h25 v4 z"/>
    <path d="M831,494 v37 h-5 v-37 h-10 v-4 h25 v4 z"/>
    <path d="M849,490 h5 v45 h-5 z"/>
    <path d="M862,490 h5 l12,41 l12,-41 h5 l-15,45 h-4 z"/>
    <path d="M900,490 h6 l15,41 h-6 l-4,-11 h-16 l-4,11 h-5 z M902,514 h13 l-6,-19 z"/>
  </g>
</svg>
